<mxfile host="app.diagrams.net" agent="Mozilla/5.0 (Windows NT 10.0; Win64; x64) AppleWebKit/537.36 (KHTML, like Gecko) Chrome/136.0.0.0 Safari/537.36" version="26.2.14">
  <diagram name="Page-1" id="6wfR7AXbfGsPP4ol5L0v">
    <mxGraphModel dx="868" dy="468" grid="1" gridSize="10" guides="1" tooltips="1" connect="1" arrows="1" fold="1" page="1" pageScale="1" pageWidth="827" pageHeight="1169" math="0" shadow="0">
      <root>
        <mxCell id="0" />
        <mxCell id="1" parent="0" />
        <mxCell id="Hj-l-nqhdvhlnWcw_HSx-103" value="" style="group" vertex="1" connectable="0" parent="1">
          <mxGeometry x="100" y="161" width="650" height="251" as="geometry" />
        </mxCell>
        <mxCell id="Hj-l-nqhdvhlnWcw_HSx-62" value="" style="rounded=0;whiteSpace=wrap;html=1;container=0;" vertex="1" parent="Hj-l-nqhdvhlnWcw_HSx-103">
          <mxGeometry x="320" y="51" width="150" height="200" as="geometry" />
        </mxCell>
        <mxCell id="Hj-l-nqhdvhlnWcw_HSx-63" value="" style="whiteSpace=wrap;html=1;rounded=0;container=0;" vertex="1" parent="Hj-l-nqhdvhlnWcw_HSx-103">
          <mxGeometry x="510" y="51" width="140" height="200" as="geometry" />
        </mxCell>
        <mxCell id="Hj-l-nqhdvhlnWcw_HSx-64" value="" style="edgeStyle=orthogonalEdgeStyle;rounded=0;orthogonalLoop=1;jettySize=auto;html=1;" edge="1" parent="Hj-l-nqhdvhlnWcw_HSx-103" source="Hj-l-nqhdvhlnWcw_HSx-65" target="Hj-l-nqhdvhlnWcw_HSx-67">
          <mxGeometry relative="1" as="geometry" />
        </mxCell>
        <mxCell id="Hj-l-nqhdvhlnWcw_HSx-65" value="" style="rounded=0;whiteSpace=wrap;html=1;container=0;" vertex="1" parent="Hj-l-nqhdvhlnWcw_HSx-103">
          <mxGeometry x="360" y="66" width="100" height="63" as="geometry" />
        </mxCell>
        <mxCell id="Hj-l-nqhdvhlnWcw_HSx-66" value="" style="edgeStyle=orthogonalEdgeStyle;rounded=0;orthogonalLoop=1;jettySize=auto;html=1;" edge="1" parent="Hj-l-nqhdvhlnWcw_HSx-103" source="Hj-l-nqhdvhlnWcw_HSx-67" target="Hj-l-nqhdvhlnWcw_HSx-68">
          <mxGeometry relative="1" as="geometry" />
        </mxCell>
        <mxCell id="Hj-l-nqhdvhlnWcw_HSx-67" value="Bank #2" style="rounded=0;whiteSpace=wrap;html=1;container=0;" vertex="1" parent="Hj-l-nqhdvhlnWcw_HSx-103">
          <mxGeometry x="360" y="151" width="100" height="30" as="geometry" />
        </mxCell>
        <mxCell id="Hj-l-nqhdvhlnWcw_HSx-68" value="Bank #N" style="rounded=0;whiteSpace=wrap;html=1;container=0;" vertex="1" parent="Hj-l-nqhdvhlnWcw_HSx-103">
          <mxGeometry x="360" y="201" width="100" height="30" as="geometry" />
        </mxCell>
        <mxCell id="Hj-l-nqhdvhlnWcw_HSx-69" value="Memory&amp;nbsp;" style="text;html=1;align=center;verticalAlign=middle;resizable=0;points=[];autosize=1;strokeColor=none;fillColor=none;container=0;" vertex="1" parent="Hj-l-nqhdvhlnWcw_HSx-103">
          <mxGeometry x="360" y="19" width="70" height="30" as="geometry" />
        </mxCell>
        <mxCell id="Hj-l-nqhdvhlnWcw_HSx-70" value="" style="edgeStyle=orthogonalEdgeStyle;rounded=0;orthogonalLoop=1;jettySize=auto;html=1;" edge="1" parent="Hj-l-nqhdvhlnWcw_HSx-103" source="Hj-l-nqhdvhlnWcw_HSx-71" target="Hj-l-nqhdvhlnWcw_HSx-72">
          <mxGeometry relative="1" as="geometry" />
        </mxCell>
        <mxCell id="Hj-l-nqhdvhlnWcw_HSx-71" value="Control Unit" style="rounded=0;whiteSpace=wrap;html=1;container=0;" vertex="1" parent="Hj-l-nqhdvhlnWcw_HSx-103">
          <mxGeometry x="520" y="66" width="120" height="65" as="geometry" />
        </mxCell>
        <mxCell id="Hj-l-nqhdvhlnWcw_HSx-72" value="ALU&amp;nbsp;" style="rounded=0;whiteSpace=wrap;html=1;container=0;" vertex="1" parent="Hj-l-nqhdvhlnWcw_HSx-103">
          <mxGeometry x="590" y="171" width="50" height="50" as="geometry" />
        </mxCell>
        <mxCell id="Hj-l-nqhdvhlnWcw_HSx-73" value="Cache" style="rounded=0;whiteSpace=wrap;html=1;container=0;" vertex="1" parent="Hj-l-nqhdvhlnWcw_HSx-103">
          <mxGeometry x="520" y="191" width="60" height="20" as="geometry" />
        </mxCell>
        <mxCell id="Hj-l-nqhdvhlnWcw_HSx-75" value="" style="shape=flexArrow;endArrow=classic;startArrow=classic;html=1;rounded=0;width=0;exitX=1;exitY=0.25;exitDx=0;exitDy=0;endSize=5.7250000000000005;startWidth=36.66666666666667;startSize=5.7250000000000005;entryX=0;entryY=0.25;entryDx=0;entryDy=0;fontStyle=4" edge="1" parent="Hj-l-nqhdvhlnWcw_HSx-103" source="Hj-l-nqhdvhlnWcw_HSx-62" target="Hj-l-nqhdvhlnWcw_HSx-63">
          <mxGeometry width="100" height="100" relative="1" as="geometry">
            <mxPoint x="460" y="96" as="sourcePoint" />
            <mxPoint x="500" y="101" as="targetPoint" />
          </mxGeometry>
        </mxCell>
        <mxCell id="Hj-l-nqhdvhlnWcw_HSx-76" value="" style="endArrow=classic;startArrow=classic;html=1;rounded=0;exitX=1;exitY=0.5;exitDx=0;exitDy=0;entryX=0;entryY=0.5;entryDx=0;entryDy=0;" edge="1" parent="Hj-l-nqhdvhlnWcw_HSx-103" source="Hj-l-nqhdvhlnWcw_HSx-65" target="Hj-l-nqhdvhlnWcw_HSx-71">
          <mxGeometry width="50" height="50" relative="1" as="geometry">
            <mxPoint x="470" y="81" as="sourcePoint" />
            <mxPoint x="510" y="94" as="targetPoint" />
          </mxGeometry>
        </mxCell>
        <mxCell id="Hj-l-nqhdvhlnWcw_HSx-77" value="Processing unit" style="text;html=1;align=center;verticalAlign=middle;resizable=0;points=[];autosize=1;strokeColor=none;fillColor=none;container=0;" vertex="1" parent="Hj-l-nqhdvhlnWcw_HSx-103">
          <mxGeometry x="525" y="21" width="110" height="30" as="geometry" />
        </mxCell>
        <mxCell id="Hj-l-nqhdvhlnWcw_HSx-78" value="In-memory computing" style="text;html=1;align=center;verticalAlign=middle;resizable=0;points=[];autosize=1;strokeColor=none;fillColor=none;container=0;" vertex="1" parent="Hj-l-nqhdvhlnWcw_HSx-103">
          <mxGeometry x="430" width="140" height="30" as="geometry" />
        </mxCell>
        <mxCell id="Hj-l-nqhdvhlnWcw_HSx-79" value="" style="endArrow=classic;startArrow=classic;html=1;rounded=0;exitX=1;exitY=0.5;exitDx=0;exitDy=0;" edge="1" parent="Hj-l-nqhdvhlnWcw_HSx-103" source="Hj-l-nqhdvhlnWcw_HSx-73">
          <mxGeometry width="50" height="50" relative="1" as="geometry">
            <mxPoint x="550" y="241" as="sourcePoint" />
            <mxPoint x="600" y="201" as="targetPoint" />
          </mxGeometry>
        </mxCell>
        <mxCell id="Hj-l-nqhdvhlnWcw_HSx-80" value="" style="endArrow=classic;startArrow=classic;html=1;rounded=0;exitX=0.667;exitY=0.025;exitDx=0;exitDy=0;exitPerimeter=0;" edge="1" parent="Hj-l-nqhdvhlnWcw_HSx-103">
          <mxGeometry width="50" height="50" relative="1" as="geometry">
            <mxPoint x="549.6" y="191" as="sourcePoint" />
            <mxPoint x="549.58" y="130.5" as="targetPoint" />
          </mxGeometry>
        </mxCell>
        <mxCell id="Hj-l-nqhdvhlnWcw_HSx-82" value="A" style="rounded=0;whiteSpace=wrap;html=1;container=0;" vertex="1" parent="Hj-l-nqhdvhlnWcw_HSx-103">
          <mxGeometry x="370" y="100.5" width="30" height="18" as="geometry" />
        </mxCell>
        <mxCell id="Hj-l-nqhdvhlnWcw_HSx-83" value="N" style="rounded=0;whiteSpace=wrap;html=1;container=0;" vertex="1" parent="Hj-l-nqhdvhlnWcw_HSx-103">
          <mxGeometry x="415" y="100.5" width="30" height="18" as="geometry" />
        </mxCell>
        <mxCell id="Hj-l-nqhdvhlnWcw_HSx-86" value="" style="endArrow=classic;html=1;rounded=0;exitX=0;exitY=0.25;exitDx=0;exitDy=0;entryX=0.993;entryY=0.595;entryDx=0;entryDy=0;entryPerimeter=0;" edge="1" parent="Hj-l-nqhdvhlnWcw_HSx-103" source="Hj-l-nqhdvhlnWcw_HSx-72" target="Hj-l-nqhdvhlnWcw_HSx-65">
          <mxGeometry width="50" height="50" relative="1" as="geometry">
            <mxPoint x="270" y="221" as="sourcePoint" />
            <mxPoint x="320" y="171" as="targetPoint" />
          </mxGeometry>
        </mxCell>
        <mxCell id="Hj-l-nqhdvhlnWcw_HSx-88" value="" style="endArrow=classic;startArrow=classic;html=1;rounded=0;entryX=0;entryY=0.75;entryDx=0;entryDy=0;" edge="1" parent="Hj-l-nqhdvhlnWcw_HSx-103">
          <mxGeometry width="50" height="50" relative="1" as="geometry">
            <mxPoint x="470" y="200.57999999999998" as="sourcePoint" />
            <mxPoint x="520" y="200.57999999999998" as="targetPoint" />
          </mxGeometry>
        </mxCell>
        <mxCell id="Hj-l-nqhdvhlnWcw_HSx-90" value="" style="endArrow=classic;html=1;rounded=0;" edge="1" parent="Hj-l-nqhdvhlnWcw_HSx-103">
          <mxGeometry width="50" height="50" relative="1" as="geometry">
            <mxPoint x="510" y="191" as="sourcePoint" />
            <mxPoint x="470" y="191" as="targetPoint" />
          </mxGeometry>
        </mxCell>
        <mxCell id="Hj-l-nqhdvhlnWcw_HSx-91" value="&lt;font style=&quot;font-size: 10px;&quot;&gt;In-memory&amp;nbsp;&lt;/font&gt;&lt;div&gt;&lt;font style=&quot;font-size: 10px;&quot;&gt;computing&lt;/font&gt;&lt;/div&gt;" style="text;html=1;align=center;verticalAlign=middle;resizable=0;points=[];autosize=1;strokeColor=none;fillColor=none;rotation=270;container=0;" vertex="1" parent="Hj-l-nqhdvhlnWcw_HSx-103">
          <mxGeometry x="305" y="78.5" width="70" height="40" as="geometry" />
        </mxCell>
        <mxCell id="Hj-l-nqhdvhlnWcw_HSx-92" value="&lt;font style=&quot;font-size: 10px;&quot;&gt;Conventional&amp;nbsp;&lt;/font&gt;&lt;div&gt;&lt;font style=&quot;font-size: 10px;&quot;&gt;computing&lt;/font&gt;&lt;/div&gt;" style="text;html=1;align=center;verticalAlign=middle;resizable=0;points=[];autosize=1;strokeColor=none;fillColor=none;rotation=270;container=0;" vertex="1" parent="Hj-l-nqhdvhlnWcw_HSx-103">
          <mxGeometry x="300" y="176" width="80" height="40" as="geometry" />
        </mxCell>
        <mxCell id="Hj-l-nqhdvhlnWcw_HSx-95" value="Bank #1" style="text;html=1;align=center;verticalAlign=middle;whiteSpace=wrap;rounded=0;container=0;" vertex="1" parent="Hj-l-nqhdvhlnWcw_HSx-103">
          <mxGeometry x="380" y="66" width="60" height="30" as="geometry" />
        </mxCell>
        <mxCell id="Hj-l-nqhdvhlnWcw_HSx-1" value="" style="rounded=0;whiteSpace=wrap;html=1;container=0;" vertex="1" parent="Hj-l-nqhdvhlnWcw_HSx-103">
          <mxGeometry y="51" width="120" height="200" as="geometry" />
        </mxCell>
        <mxCell id="Hj-l-nqhdvhlnWcw_HSx-2" value="" style="whiteSpace=wrap;html=1;rounded=0;container=0;" vertex="1" parent="Hj-l-nqhdvhlnWcw_HSx-103">
          <mxGeometry x="160" y="51" width="140" height="200" as="geometry" />
        </mxCell>
        <mxCell id="Hj-l-nqhdvhlnWcw_HSx-7" value="" style="edgeStyle=orthogonalEdgeStyle;rounded=0;orthogonalLoop=1;jettySize=auto;html=1;" edge="1" parent="Hj-l-nqhdvhlnWcw_HSx-103" source="Hj-l-nqhdvhlnWcw_HSx-5" target="Hj-l-nqhdvhlnWcw_HSx-6">
          <mxGeometry relative="1" as="geometry" />
        </mxCell>
        <mxCell id="Hj-l-nqhdvhlnWcw_HSx-5" value="Bank #1" style="rounded=0;whiteSpace=wrap;html=1;container=0;" vertex="1" parent="Hj-l-nqhdvhlnWcw_HSx-103">
          <mxGeometry x="10" y="66" width="100" height="30" as="geometry" />
        </mxCell>
        <mxCell id="Hj-l-nqhdvhlnWcw_HSx-9" value="" style="edgeStyle=orthogonalEdgeStyle;rounded=0;orthogonalLoop=1;jettySize=auto;html=1;" edge="1" parent="Hj-l-nqhdvhlnWcw_HSx-103" source="Hj-l-nqhdvhlnWcw_HSx-6" target="Hj-l-nqhdvhlnWcw_HSx-8">
          <mxGeometry relative="1" as="geometry" />
        </mxCell>
        <mxCell id="Hj-l-nqhdvhlnWcw_HSx-6" value="Bank #2" style="rounded=0;whiteSpace=wrap;html=1;container=0;" vertex="1" parent="Hj-l-nqhdvhlnWcw_HSx-103">
          <mxGeometry x="10" y="121" width="100" height="30" as="geometry" />
        </mxCell>
        <mxCell id="Hj-l-nqhdvhlnWcw_HSx-8" value="Bank #N" style="rounded=0;whiteSpace=wrap;html=1;container=0;" vertex="1" parent="Hj-l-nqhdvhlnWcw_HSx-103">
          <mxGeometry x="10" y="181" width="100" height="30" as="geometry" />
        </mxCell>
        <mxCell id="Hj-l-nqhdvhlnWcw_HSx-10" value="Memory&amp;nbsp;" style="text;html=1;align=center;verticalAlign=middle;resizable=0;points=[];autosize=1;strokeColor=none;fillColor=none;container=0;" vertex="1" parent="Hj-l-nqhdvhlnWcw_HSx-103">
          <mxGeometry x="25" y="19" width="70" height="30" as="geometry" />
        </mxCell>
        <mxCell id="Hj-l-nqhdvhlnWcw_HSx-15" value="" style="edgeStyle=orthogonalEdgeStyle;rounded=0;orthogonalLoop=1;jettySize=auto;html=1;" edge="1" parent="Hj-l-nqhdvhlnWcw_HSx-103" source="Hj-l-nqhdvhlnWcw_HSx-13" target="Hj-l-nqhdvhlnWcw_HSx-14">
          <mxGeometry relative="1" as="geometry" />
        </mxCell>
        <mxCell id="Hj-l-nqhdvhlnWcw_HSx-13" value="Control Unit" style="rounded=0;whiteSpace=wrap;html=1;container=0;" vertex="1" parent="Hj-l-nqhdvhlnWcw_HSx-103">
          <mxGeometry x="170" y="66" width="120" height="65" as="geometry" />
        </mxCell>
        <mxCell id="Hj-l-nqhdvhlnWcw_HSx-14" value="ALU&amp;nbsp;" style="rounded=0;whiteSpace=wrap;html=1;container=0;" vertex="1" parent="Hj-l-nqhdvhlnWcw_HSx-103">
          <mxGeometry x="240" y="171" width="50" height="50" as="geometry" />
        </mxCell>
        <mxCell id="Hj-l-nqhdvhlnWcw_HSx-17" value="Cache" style="rounded=0;whiteSpace=wrap;html=1;container=0;" vertex="1" parent="Hj-l-nqhdvhlnWcw_HSx-103">
          <mxGeometry x="170" y="191" width="60" height="20" as="geometry" />
        </mxCell>
        <mxCell id="Hj-l-nqhdvhlnWcw_HSx-20" style="edgeStyle=orthogonalEdgeStyle;rounded=0;orthogonalLoop=1;jettySize=auto;html=1;" edge="1" parent="Hj-l-nqhdvhlnWcw_HSx-103" target="Hj-l-nqhdvhlnWcw_HSx-1">
          <mxGeometry relative="1" as="geometry">
            <mxPoint x="150" y="201" as="targetPoint" />
            <mxPoint x="160" y="201" as="sourcePoint" />
            <Array as="points">
              <mxPoint x="160" y="191" />
            </Array>
          </mxGeometry>
        </mxCell>
        <mxCell id="Hj-l-nqhdvhlnWcw_HSx-23" value="" style="shape=flexArrow;endArrow=classic;startArrow=classic;html=1;rounded=0;width=0;exitX=1;exitY=0.25;exitDx=0;exitDy=0;endSize=5.7250000000000005;startWidth=36.66666666666667;startSize=5.7250000000000005;entryX=0;entryY=0.25;entryDx=0;entryDy=0;fontStyle=4" edge="1" parent="Hj-l-nqhdvhlnWcw_HSx-103" source="Hj-l-nqhdvhlnWcw_HSx-1" target="Hj-l-nqhdvhlnWcw_HSx-2">
          <mxGeometry width="100" height="100" relative="1" as="geometry">
            <mxPoint x="110" y="96" as="sourcePoint" />
            <mxPoint x="150" y="101" as="targetPoint" />
          </mxGeometry>
        </mxCell>
        <mxCell id="Hj-l-nqhdvhlnWcw_HSx-29" value="" style="endArrow=classic;startArrow=classic;html=1;rounded=0;exitX=1;exitY=0.5;exitDx=0;exitDy=0;entryX=0;entryY=0.25;entryDx=0;entryDy=0;" edge="1" parent="Hj-l-nqhdvhlnWcw_HSx-103" source="Hj-l-nqhdvhlnWcw_HSx-5" target="Hj-l-nqhdvhlnWcw_HSx-13">
          <mxGeometry width="50" height="50" relative="1" as="geometry">
            <mxPoint x="120" y="81" as="sourcePoint" />
            <mxPoint x="160" y="94" as="targetPoint" />
          </mxGeometry>
        </mxCell>
        <mxCell id="Hj-l-nqhdvhlnWcw_HSx-30" value="Processing unit" style="text;html=1;align=center;verticalAlign=middle;resizable=0;points=[];autosize=1;strokeColor=none;fillColor=none;container=0;" vertex="1" parent="Hj-l-nqhdvhlnWcw_HSx-103">
          <mxGeometry x="175" y="21" width="110" height="30" as="geometry" />
        </mxCell>
        <mxCell id="Hj-l-nqhdvhlnWcw_HSx-31" value="Conventional computing" style="text;html=1;align=center;verticalAlign=middle;resizable=0;points=[];autosize=1;strokeColor=none;fillColor=none;container=0;" vertex="1" parent="Hj-l-nqhdvhlnWcw_HSx-103">
          <mxGeometry x="65" width="150" height="30" as="geometry" />
        </mxCell>
        <mxCell id="Hj-l-nqhdvhlnWcw_HSx-34" value="" style="endArrow=classic;startArrow=classic;html=1;rounded=0;exitX=1;exitY=0.5;exitDx=0;exitDy=0;" edge="1" parent="Hj-l-nqhdvhlnWcw_HSx-103" source="Hj-l-nqhdvhlnWcw_HSx-17">
          <mxGeometry width="50" height="50" relative="1" as="geometry">
            <mxPoint x="200" y="241" as="sourcePoint" />
            <mxPoint x="250" y="201" as="targetPoint" />
          </mxGeometry>
        </mxCell>
        <mxCell id="Hj-l-nqhdvhlnWcw_HSx-35" value="" style="endArrow=classic;startArrow=classic;html=1;rounded=0;exitX=0.667;exitY=0.025;exitDx=0;exitDy=0;exitPerimeter=0;" edge="1" parent="Hj-l-nqhdvhlnWcw_HSx-103">
          <mxGeometry width="50" height="50" relative="1" as="geometry">
            <mxPoint x="199.60000000000002" y="191" as="sourcePoint" />
            <mxPoint x="199.58000000000004" y="130.5" as="targetPoint" />
          </mxGeometry>
        </mxCell>
        <mxCell id="Hj-l-nqhdvhlnWcw_HSx-36" value="" style="endArrow=classic;startArrow=classic;html=1;rounded=0;entryX=0;entryY=0.75;entryDx=0;entryDy=0;" edge="1" parent="Hj-l-nqhdvhlnWcw_HSx-103" target="Hj-l-nqhdvhlnWcw_HSx-17">
          <mxGeometry width="50" height="50" relative="1" as="geometry">
            <mxPoint x="120" y="206" as="sourcePoint" />
            <mxPoint x="160" y="211" as="targetPoint" />
          </mxGeometry>
        </mxCell>
        <mxCell id="Hj-l-nqhdvhlnWcw_HSx-97" value="fetch" style="text;html=1;align=center;verticalAlign=middle;whiteSpace=wrap;rounded=0;container=0;" vertex="1" parent="Hj-l-nqhdvhlnWcw_HSx-103">
          <mxGeometry x="110" y="161" width="60" height="30" as="geometry" />
        </mxCell>
        <mxCell id="Hj-l-nqhdvhlnWcw_HSx-98" value="store" style="text;html=1;align=center;verticalAlign=middle;whiteSpace=wrap;rounded=0;container=0;" vertex="1" parent="Hj-l-nqhdvhlnWcw_HSx-103">
          <mxGeometry x="115" y="201" width="60" height="30" as="geometry" />
        </mxCell>
      </root>
    </mxGraphModel>
  </diagram>
</mxfile>
